<svg width="141" height="73" viewBox="0 0 141 73" fill="none" xmlns="http://www.w3.org/2000/svg">
<path d="M1.39906 59.2001C1.78039 59.2001 2.09506 59.3361 2.34306 59.6081C2.59373 59.8774 2.71906 60.2081 2.71906 60.6001C2.71906 60.9921 2.59373 61.3241 2.34306 61.5961C2.09506 61.8654 1.78039 62.0001 1.39906 62.0001H0.319063V59.2001H1.39906ZM1.39906 61.7361C1.70573 61.7361 1.95639 61.6268 2.15106 61.4081C2.34839 61.1894 2.44706 60.9201 2.44706 60.6001C2.44706 60.2801 2.34839 60.0108 2.15106 59.7921C1.95639 59.5734 1.70573 59.4641 1.39906 59.4641H0.599063V61.7361H1.39906ZM3.42597 59.5201C3.38863 59.5574 3.3433 59.5761 3.28997 59.5761C3.23663 59.5761 3.1913 59.5574 3.15397 59.5201C3.11663 59.4828 3.09797 59.4374 3.09797 59.3841C3.09797 59.3308 3.11663 59.2854 3.15397 59.2481C3.1913 59.2108 3.23663 59.1921 3.28997 59.1921C3.3433 59.1921 3.38863 59.2108 3.42597 59.2481C3.4633 59.2854 3.48197 59.3308 3.48197 59.3841C3.48197 59.4374 3.4633 59.4828 3.42597 59.5201ZM3.15797 62.0001V60.0001H3.42197V62.0001H3.15797ZM5.70218 60.0001H5.96619V61.9201C5.96619 62.2081 5.86752 62.4348 5.67019 62.6001C5.47285 62.7654 5.23685 62.8481 4.96219 62.8481C4.49285 62.8481 4.17685 62.6854 4.01419 62.3601L4.24619 62.2281C4.36619 62.4708 4.60485 62.5921 4.96219 62.5921C5.19152 62.5921 5.37152 62.5308 5.50219 62.4081C5.63552 62.2881 5.70218 62.1254 5.70218 61.9201V61.6081C5.51819 61.9014 5.24885 62.0481 4.89419 62.0481C4.60885 62.0481 4.36485 61.9468 4.16219 61.7441C3.96219 61.5414 3.86219 61.2934 3.86219 61.0001C3.86219 60.7068 3.96219 60.4588 4.16219 60.2561C4.36485 60.0534 4.60885 59.9521 4.89419 59.9521C5.24885 59.9521 5.51819 60.0988 5.70218 60.3921V60.0001ZM4.35419 61.5641C4.50619 61.7161 4.69285 61.7921 4.91419 61.7921C5.13552 61.7921 5.32219 61.7161 5.47419 61.5641C5.62619 61.4094 5.70218 61.2214 5.70218 61.0001C5.70218 60.7788 5.62619 60.5921 5.47419 60.4401C5.32219 60.2854 5.13552 60.2081 4.91419 60.2081C4.69285 60.2081 4.50619 60.2854 4.35419 60.4401C4.20219 60.5921 4.12619 60.7788 4.12619 61.0001C4.12619 61.2214 4.20219 61.4094 4.35419 61.5641ZM6.79315 59.5201C6.75582 59.5574 6.71049 59.5761 6.65715 59.5761C6.60382 59.5761 6.55849 59.5574 6.52115 59.5201C6.48382 59.4828 6.46515 59.4374 6.46515 59.3841C6.46515 59.3308 6.48382 59.2854 6.52115 59.2481C6.55849 59.2108 6.60382 59.1921 6.65715 59.1921C6.71049 59.1921 6.75582 59.2108 6.79315 59.2481C6.83049 59.2854 6.84915 59.3308 6.84915 59.3841C6.84915 59.4374 6.83049 59.4828 6.79315 59.5201ZM6.52515 62.0001V60.0001H6.78915V62.0001H6.52515ZM8.40937 60.2561H7.83337V61.4681C7.83337 61.5774 7.85471 61.6561 7.89737 61.7041C7.94004 61.7494 8.00404 61.7734 8.08937 61.7761C8.17471 61.7761 8.28137 61.7734 8.40937 61.7681V62.0001C8.12937 62.0428 7.91871 62.0228 7.77737 61.9401C7.63871 61.8574 7.56937 61.7001 7.56937 61.4681V60.2561H7.14937V60.0001H7.56937V59.5201L7.83337 59.4401V60.0001H8.40937V60.2561ZM10.4483 60.0001H10.7123V62.0001H10.4483V61.6081C10.2643 61.9014 9.99495 62.0481 9.64028 62.0481C9.35495 62.0481 9.11095 61.9468 8.90828 61.7441C8.70828 61.5414 8.60828 61.2934 8.60828 61.0001C8.60828 60.7068 8.70828 60.4588 8.90828 60.2561C9.11095 60.0534 9.35495 59.9521 9.64028 59.9521C9.99495 59.9521 10.2643 60.0988 10.4483 60.3921V60.0001ZM9.10028 61.5641C9.25228 61.7161 9.43895 61.7921 9.66028 61.7921C9.88161 61.7921 10.0683 61.7161 10.2203 61.5641C10.3723 61.4094 10.4483 61.2214 10.4483 61.0001C10.4483 60.7788 10.3723 60.5921 10.2203 60.4401C10.0683 60.2854 9.88161 60.2081 9.66028 60.2081C9.43895 60.2081 9.25228 60.2854 9.10028 60.4401C8.94828 60.5921 8.87228 60.7788 8.87228 61.0001C8.87228 61.2214 8.94828 61.4094 9.10028 61.5641ZM11.2713 62.0001V59.0801H11.5353V62.0001H11.2713ZM14.8155 59.2001H15.0795V62.0001H14.8155V61.6081C14.6315 61.9014 14.3622 62.0481 14.0075 62.0481C13.7222 62.0481 13.4782 61.9468 13.2755 61.7441C13.0755 61.5414 12.9755 61.2934 12.9755 61.0001C12.9755 60.7068 13.0755 60.4588 13.2755 60.2561C13.4782 60.0534 13.7222 59.9521 14.0075 59.9521C14.3622 59.9521 14.6315 60.0988 14.8155 60.3921V59.2001ZM13.4675 61.5641C13.6195 61.7161 13.8062 61.7921 14.0275 61.7921C14.2488 61.7921 14.4355 61.7161 14.5875 61.5641C14.7395 61.4094 14.8155 61.2214 14.8155 61.0001C14.8155 60.7788 14.7395 60.5921 14.5875 60.4401C14.4355 60.2854 14.2488 60.2081 14.0275 60.2081C13.8062 60.2081 13.6195 60.2854 13.4675 60.4401C13.3155 60.5921 13.2395 60.7788 13.2395 61.0001C13.2395 61.2214 13.3155 61.4094 13.4675 61.5641ZM16.5625 59.9521C16.8585 59.9521 17.0971 60.0574 17.2785 60.2681C17.4625 60.4761 17.5545 60.7228 17.5545 61.0081C17.5545 61.0374 17.5518 61.0788 17.5465 61.1321H15.7905C15.8171 61.3348 15.9025 61.4961 16.0465 61.6161C16.1931 61.7334 16.3731 61.7921 16.5865 61.7921C16.7385 61.7921 16.8691 61.7614 16.9785 61.7001C17.0905 61.6361 17.1745 61.5534 17.2305 61.4521L17.4625 61.5881C17.3745 61.7294 17.2545 61.8414 17.1025 61.9241C16.9505 62.0068 16.7771 62.0481 16.5825 62.0481C16.2678 62.0481 16.0118 61.9494 15.8145 61.7521C15.6171 61.5548 15.5185 61.3041 15.5185 61.0001C15.5185 60.7014 15.6158 60.4521 15.8105 60.2521C16.0051 60.0521 16.2558 59.9521 16.5625 59.9521ZM16.5625 60.2081C16.3545 60.2081 16.1798 60.2708 16.0385 60.3961C15.8998 60.5188 15.8171 60.6788 15.7905 60.8761H17.2825C17.2558 60.6654 17.1745 60.5014 17.0385 60.3841C16.9025 60.2668 16.7438 60.2081 16.5625 60.2081ZM18.1043 60.5241C18.1043 60.6148 18.1443 60.6868 18.2243 60.7401C18.3043 60.7934 18.4016 60.8348 18.5163 60.8641C18.631 60.8934 18.7456 60.9268 18.8603 60.9641C18.975 60.9988 19.0723 61.0588 19.1523 61.1441C19.2323 61.2268 19.2723 61.3361 19.2723 61.4721C19.2723 61.6428 19.2043 61.7814 19.0683 61.8881C18.935 61.9948 18.7616 62.0481 18.5483 62.0481C18.3563 62.0481 18.1923 62.0054 18.0563 61.9201C17.923 61.8348 17.8296 61.7241 17.7763 61.5881L18.0003 61.4561C18.0376 61.5601 18.1043 61.6428 18.2003 61.7041C18.299 61.7628 18.415 61.7921 18.5483 61.7921C18.679 61.7921 18.7883 61.7668 18.8763 61.7161C18.9643 61.6628 19.0083 61.5814 19.0083 61.4721C19.0083 61.3814 18.9683 61.3094 18.8883 61.2561C18.8083 61.2028 18.711 61.1614 18.5963 61.1321C18.4816 61.1028 18.367 61.0708 18.2523 61.0361C18.1376 60.9988 18.0403 60.9388 17.9603 60.8561C17.8803 60.7708 17.8403 60.6601 17.8403 60.5241C17.8403 60.3614 17.9043 60.2254 18.0323 60.1161C18.163 60.0068 18.327 59.9521 18.5243 59.9521C18.687 59.9521 18.8296 59.9894 18.9523 60.0641C19.075 60.1361 19.1656 60.2348 19.2243 60.3601L19.0043 60.4881C18.927 60.3014 18.767 60.2081 18.5243 60.2081C18.4096 60.2081 18.311 60.2361 18.2283 60.2921C18.1456 60.3454 18.1043 60.4228 18.1043 60.5241ZM19.9612 59.5201C19.9238 59.5574 19.8785 59.5761 19.8252 59.5761C19.7718 59.5761 19.7265 59.5574 19.6892 59.5201C19.6518 59.4828 19.6332 59.4374 19.6332 59.3841C19.6332 59.3308 19.6518 59.2854 19.6892 59.2481C19.7265 59.2108 19.7718 59.1921 19.8252 59.1921C19.8785 59.1921 19.9238 59.2108 19.9612 59.2481C19.9985 59.2854 20.0172 59.3308 20.0172 59.3841C20.0172 59.4374 19.9985 59.4828 19.9612 59.5201ZM19.6932 62.0001V60.0001H19.9572V62.0001H19.6932ZM22.2374 60.0001H22.5014V61.9201C22.5014 62.2081 22.4027 62.4348 22.2054 62.6001C22.008 62.7654 21.772 62.8481 21.4974 62.8481C21.028 62.8481 20.712 62.6854 20.5494 62.3601L20.7814 62.2281C20.9014 62.4708 21.14 62.5921 21.4974 62.5921C21.7267 62.5921 21.9067 62.5308 22.0374 62.4081C22.1707 62.2881 22.2374 62.1254 22.2374 61.9201V61.6081C22.0534 61.9014 21.784 62.0481 21.4294 62.0481C21.144 62.0481 20.9 61.9468 20.6974 61.7441C20.4974 61.5414 20.3974 61.2934 20.3974 61.0001C20.3974 60.7068 20.4974 60.4588 20.6974 60.2561C20.9 60.0534 21.144 59.9521 21.4294 59.9521C21.784 59.9521 22.0534 60.0988 22.2374 60.3921V60.0001ZM20.8894 61.5641C21.0414 61.7161 21.228 61.7921 21.4494 61.7921C21.6707 61.7921 21.8574 61.7161 22.0094 61.5641C22.1614 61.4094 22.2374 61.2214 22.2374 61.0001C22.2374 60.7788 22.1614 60.5921 22.0094 60.4401C21.8574 60.2854 21.6707 60.2081 21.4494 60.2081C21.228 60.2081 21.0414 60.2854 20.8894 60.4401C20.7374 60.5921 20.6614 60.7788 20.6614 61.0001C20.6614 61.2214 20.7374 61.4094 20.8894 61.5641ZM23.9964 59.9521C24.239 59.9521 24.4297 60.0268 24.5684 60.1761C24.7097 60.3228 24.7803 60.5214 24.7803 60.7721V62.0001H24.5164V60.7721C24.5164 60.5934 24.4684 60.4548 24.3724 60.3561C24.279 60.2574 24.1457 60.2081 23.9724 60.2081C23.7804 60.2081 23.6244 60.2694 23.5044 60.3921C23.3844 60.5121 23.3244 60.6988 23.3244 60.9521V62.0001H23.0604V60.0001H23.3244V60.3121C23.4737 60.0721 23.6977 59.9521 23.9964 59.9521ZM25.7308 61.6601L25.4908 62.5601H25.2508L25.4108 61.6601H25.7308ZM28.9718 59.2001H29.2358V62.0001H28.9718V61.6081C28.7878 61.9014 28.5184 62.0481 28.1638 62.0481C27.8784 62.0481 27.6344 61.9468 27.4318 61.7441C27.2318 61.5414 27.1318 61.2934 27.1318 61.0001C27.1318 60.7068 27.2318 60.4588 27.4318 60.2561C27.6344 60.0534 27.8784 59.9521 28.1638 59.9521C28.5184 59.9521 28.7878 60.0988 28.9718 60.3921V59.2001ZM27.6238 61.5641C27.7758 61.7161 27.9624 61.7921 28.1838 61.7921C28.4051 61.7921 28.5918 61.7161 28.7438 61.5641C28.8958 61.4094 28.9718 61.2214 28.9718 61.0001C28.9718 60.7788 28.8958 60.5921 28.7438 60.4401C28.5918 60.2854 28.4051 60.2081 28.1838 60.2081C27.9624 60.2081 27.7758 60.2854 27.6238 60.4401C27.4718 60.5921 27.3958 60.7788 27.3958 61.0001C27.3958 61.2214 27.4718 61.4094 27.6238 61.5641ZM30.7187 59.9521C31.0147 59.9521 31.2534 60.0574 31.4347 60.2681C31.6187 60.4761 31.7107 60.7228 31.7107 61.0081C31.7107 61.0374 31.7081 61.0788 31.7027 61.1321H29.9467C29.9734 61.3348 30.0587 61.4961 30.2027 61.6161C30.3494 61.7334 30.5294 61.7921 30.7427 61.7921C30.8947 61.7921 31.0254 61.7614 31.1347 61.7001C31.2467 61.6361 31.3307 61.5534 31.3867 61.4521L31.6187 61.5881C31.5307 61.7294 31.4107 61.8414 31.2587 61.9241C31.1067 62.0068 30.9334 62.0481 30.7387 62.0481C30.4241 62.0481 30.1681 61.9494 29.9707 61.7521C29.7734 61.5548 29.6747 61.3041 29.6747 61.0001C29.6747 60.7014 29.7721 60.4521 29.9667 60.2521C30.1614 60.0521 30.4121 59.9521 30.7187 59.9521ZM30.7187 60.2081C30.5107 60.2081 30.3361 60.2708 30.1947 60.3961C30.0561 60.5188 29.9734 60.6788 29.9467 60.8761H31.4387C31.4121 60.6654 31.3307 60.5014 31.1947 60.3841C31.0587 60.2668 30.9001 60.2081 30.7187 60.2081ZM33.4925 60.0001H33.7725L32.9525 62.0001H32.6325L31.8125 60.0001H32.0925L32.7925 61.7241L33.4925 60.0001ZM34.9375 59.9521C35.2335 59.9521 35.4721 60.0574 35.6535 60.2681C35.8375 60.4761 35.9295 60.7228 35.9295 61.0081C35.9295 61.0374 35.9268 61.0788 35.9215 61.1321H34.1655C34.1921 61.3348 34.2775 61.4961 34.4215 61.6161C34.5681 61.7334 34.7481 61.7921 34.9615 61.7921C35.1135 61.7921 35.2441 61.7614 35.3535 61.7001C35.4655 61.6361 35.5495 61.5534 35.6055 61.4521L35.8375 61.5881C35.7495 61.7294 35.6295 61.8414 35.4775 61.9241C35.3255 62.0068 35.1521 62.0481 34.9575 62.0481C34.6428 62.0481 34.3868 61.9494 34.1895 61.7521C33.9921 61.5548 33.8935 61.3041 33.8935 61.0001C33.8935 60.7014 33.9908 60.4521 34.1855 60.2521C34.3801 60.0521 34.6308 59.9521 34.9375 59.9521ZM34.9375 60.2081C34.7295 60.2081 34.5548 60.2708 34.4135 60.3961C34.2748 60.5188 34.1921 60.6788 34.1655 60.8761H35.6575C35.6308 60.6654 35.5495 60.5014 35.4135 60.3841C35.2775 60.2668 35.1188 60.2081 34.9375 60.2081ZM36.3494 62.0001V59.0801H36.6134V62.0001H36.3494ZM38.8496 61.7481C38.647 61.9481 38.399 62.0481 38.1056 62.0481C37.8123 62.0481 37.563 61.9481 37.3576 61.7481C37.155 61.5454 37.0536 61.2961 37.0536 61.0001C37.0536 60.7041 37.155 60.4561 37.3576 60.2561C37.563 60.0534 37.8123 59.9521 38.1056 59.9521C38.399 59.9521 38.647 60.0534 38.8496 60.2561C39.055 60.4561 39.1576 60.7041 39.1576 61.0001C39.1576 61.2961 39.055 61.5454 38.8496 61.7481ZM37.5456 61.5641C37.6976 61.7161 37.8843 61.7921 38.1056 61.7921C38.327 61.7921 38.5136 61.7161 38.6656 61.5641C38.8176 61.4094 38.8936 61.2214 38.8936 61.0001C38.8936 60.7788 38.8176 60.5921 38.6656 60.4401C38.5136 60.2854 38.327 60.2081 38.1056 60.2081C37.8843 60.2081 37.6976 60.2854 37.5456 60.4401C37.3936 60.5921 37.3176 60.7788 37.3176 61.0001C37.3176 61.2214 37.3936 61.4094 37.5456 61.5641ZM40.6714 59.9521C40.9567 59.9521 41.1994 60.0534 41.3994 60.2561C41.6021 60.4588 41.7034 60.7068 41.7034 61.0001C41.7034 61.2934 41.6021 61.5414 41.3994 61.7441C41.1994 61.9468 40.9567 62.0481 40.6714 62.0481C40.3167 62.0481 40.0474 61.9014 39.8634 61.6081V62.8001H39.5994V60.0001H39.8634V60.3921C40.0474 60.0988 40.3167 59.9521 40.6714 59.9521ZM40.0914 61.5641C40.2434 61.7161 40.4301 61.7921 40.6514 61.7921C40.8727 61.7921 41.0594 61.7161 41.2114 61.5641C41.3634 61.4094 41.4394 61.2214 41.4394 61.0001C41.4394 60.7788 41.3634 60.5921 41.2114 60.4401C41.0594 60.2854 40.8727 60.2081 40.6514 60.2081C40.4301 60.2081 40.2434 60.2854 40.0914 60.4401C39.9394 60.5921 39.8634 60.7788 39.8634 61.0001C39.8634 61.2214 39.9394 61.4094 40.0914 61.5641ZM44.2744 59.9521C44.4984 59.9521 44.6784 60.0241 44.8144 60.1681C44.953 60.3121 45.0224 60.5068 45.0224 60.7521V62.0001H44.7584V60.7521C44.7584 60.5788 44.713 60.4454 44.6224 60.3521C44.5344 60.2561 44.417 60.2081 44.2704 60.2081C44.105 60.2081 43.9704 60.2641 43.8664 60.3761C43.765 60.4854 43.7144 60.6574 43.7144 60.8921V62.0001H43.4504V60.7521C43.4504 60.5761 43.4077 60.4414 43.3224 60.3481C43.2397 60.2548 43.1264 60.2081 42.9824 60.2081C42.8224 60.2081 42.6864 60.2641 42.5744 60.3761C42.4624 60.4881 42.4064 60.6601 42.4064 60.8921V62.0001H42.1424V60.0001H42.4064V60.2921C42.5504 60.0654 42.7544 59.9521 43.0184 59.9521C43.3064 59.9521 43.509 60.0734 43.6264 60.3161C43.7704 60.0734 43.9864 59.9521 44.2744 59.9521ZM46.457 59.9521C46.753 59.9521 46.9917 60.0574 47.173 60.2681C47.357 60.4761 47.449 60.7228 47.449 61.0081C47.449 61.0374 47.4463 61.0788 47.441 61.1321H45.685C45.7117 61.3348 45.797 61.4961 45.941 61.6161C46.0877 61.7334 46.2677 61.7921 46.481 61.7921C46.633 61.7921 46.7637 61.7614 46.873 61.7001C46.985 61.6361 47.069 61.5534 47.125 61.4521L47.357 61.5881C47.269 61.7294 47.149 61.8414 46.997 61.9241C46.845 62.0068 46.6717 62.0481 46.477 62.0481C46.1623 62.0481 45.9063 61.9494 45.709 61.7521C45.5117 61.5548 45.413 61.3041 45.413 61.0001C45.413 60.7014 45.5103 60.4521 45.705 60.2521C45.8997 60.0521 46.1503 59.9521 46.457 59.9521ZM46.457 60.2081C46.249 60.2081 46.0743 60.2708 45.933 60.3961C45.7943 60.5188 45.7117 60.6788 45.685 60.8761H47.177C47.1503 60.6654 47.069 60.5014 46.933 60.3841C46.797 60.2668 46.6383 60.2081 46.457 60.2081ZM48.8049 59.9521C49.0476 59.9521 49.2383 60.0268 49.3769 60.1761C49.5183 60.3228 49.5889 60.5214 49.5889 60.7721V62.0001H49.3249V60.7721C49.3249 60.5934 49.2769 60.4548 49.1809 60.3561C49.0876 60.2574 48.9543 60.2081 48.7809 60.2081C48.5889 60.2081 48.4329 60.2694 48.3129 60.3921C48.1929 60.5121 48.1329 60.6988 48.1329 60.9521V62.0001H47.8689V60.0001H48.1329V60.3121C48.2823 60.0721 48.5063 59.9521 48.8049 59.9521ZM51.1594 60.2561H50.5834V61.4681C50.5834 61.5774 50.6047 61.6561 50.6474 61.7041C50.6901 61.7494 50.7541 61.7734 50.8394 61.7761C50.9247 61.7761 51.0314 61.7734 51.1594 61.7681V62.0001C50.8794 62.0428 50.6687 62.0228 50.5274 61.9401C50.3887 61.8574 50.3194 61.7001 50.3194 61.4681V60.2561H49.8994V60.0001H50.3194V59.5201L50.5834 59.4401V60.0001H51.1594V60.2561ZM54.8474 61.9081L54.5994 62.0481L54.3034 61.7321C54.0927 61.9428 53.8181 62.0481 53.4794 62.0481C53.2047 62.0481 52.9821 61.9774 52.8114 61.8361C52.6434 61.6921 52.5594 61.4988 52.5594 61.2561C52.5594 61.0801 52.6047 60.9214 52.6954 60.7801C52.7861 60.6388 52.9207 60.5268 53.0994 60.4441C52.9607 60.2868 52.8914 60.1108 52.8914 59.9161C52.8914 59.6841 52.9714 59.4988 53.1314 59.3601C53.2914 59.2214 53.4781 59.1521 53.6914 59.1521C53.8701 59.1521 54.0327 59.2028 54.1794 59.3041C54.3287 59.4028 54.4354 59.5374 54.4994 59.7081L54.2634 59.8441C54.2234 59.7134 54.1514 59.6108 54.0474 59.5361C53.9461 59.4614 53.8287 59.4241 53.6954 59.4241C53.5514 59.4241 53.4274 59.4681 53.3234 59.5561C53.2221 59.6441 53.1714 59.7588 53.1714 59.9001C53.1714 59.9934 53.1927 60.0774 53.2354 60.1521C53.2807 60.2268 53.3461 60.3094 53.4314 60.4001L54.2754 61.3001C54.3527 61.1481 54.4034 60.9708 54.4274 60.7681L54.6754 60.9121C54.6407 61.1441 54.5727 61.3428 54.4714 61.5081L54.8474 61.9081ZM53.4714 61.7761C53.7381 61.7761 53.9514 61.6934 54.1114 61.5281L53.2874 60.6521C53.1301 60.7108 53.0154 60.7948 52.9434 60.9041C52.8741 61.0108 52.8394 61.1254 52.8394 61.2481C52.8394 61.4108 52.8954 61.5401 53.0074 61.6361C53.1221 61.7294 53.2767 61.7761 53.4714 61.7761ZM57.3003 59.9521C57.5857 59.9521 57.8283 60.0534 58.0283 60.2561C58.231 60.4588 58.3323 60.7068 58.3323 61.0001C58.3323 61.2934 58.231 61.5414 58.0283 61.7441C57.8283 61.9468 57.5857 62.0481 57.3003 62.0481C56.9457 62.0481 56.6763 61.9014 56.4923 61.6081V62.8001H56.2283V60.0001H56.4923V60.3921C56.6763 60.0988 56.9457 59.9521 57.3003 59.9521ZM56.7203 61.5641C56.8723 61.7161 57.059 61.7921 57.2803 61.7921C57.5017 61.7921 57.6883 61.7161 57.8403 61.5641C57.9923 61.4094 58.0683 61.2214 58.0683 61.0001C58.0683 60.7788 57.9923 60.5921 57.8403 60.4401C57.6883 60.2854 57.5017 60.2081 57.2803 60.2081C57.059 60.2081 56.8723 60.2854 56.7203 60.4401C56.5683 60.5921 56.4923 60.7788 56.4923 61.0001C56.4923 61.2214 56.5683 61.4094 56.7203 61.5641ZM59.0353 60.3321C59.158 60.0894 59.3686 59.9681 59.6673 59.9681V60.2241C59.486 60.2241 59.3353 60.2774 59.2153 60.3841C59.0953 60.4908 59.0353 60.6588 59.0353 60.8881V62.0001H58.7713V60.0001H59.0353V60.3321ZM61.584 61.7481C61.3813 61.9481 61.1333 62.0481 60.84 62.0481C60.5467 62.0481 60.2973 61.9481 60.092 61.7481C59.8893 61.5454 59.788 61.2961 59.788 61.0001C59.788 60.7041 59.8893 60.4561 60.092 60.2561C60.2973 60.0534 60.5467 59.9521 60.84 59.9521C61.1333 59.9521 61.3813 60.0534 61.584 60.2561C61.7893 60.4561 61.892 60.7041 61.892 61.0001C61.892 61.2961 61.7893 61.5454 61.584 61.7481ZM60.28 61.5641C60.432 61.7161 60.6187 61.7921 60.84 61.7921C61.0613 61.7921 61.248 61.7161 61.4 61.5641C61.552 61.4094 61.628 61.2214 61.628 61.0001C61.628 60.7788 61.552 60.5921 61.4 60.4401C61.248 60.2854 61.0613 60.2081 60.84 60.2081C60.6187 60.2081 60.432 60.2854 60.28 60.4401C60.128 60.5921 60.052 60.7788 60.052 61.0001C60.052 61.2214 60.128 61.4094 60.28 61.5641ZM64.4658 59.9521C64.6898 59.9521 64.8698 60.0241 65.0058 60.1681C65.1445 60.3121 65.2138 60.5068 65.2138 60.7521V62.0001H64.9498V60.7521C64.9498 60.5788 64.9045 60.4454 64.8138 60.3521C64.7258 60.2561 64.6085 60.2081 64.4618 60.2081C64.2965 60.2081 64.1618 60.2641 64.0578 60.3761C63.9565 60.4854 63.9058 60.6574 63.9058 60.8921V62.0001H63.6418V60.7521C63.6418 60.5761 63.5991 60.4414 63.5138 60.3481C63.4311 60.2548 63.3178 60.2081 63.1738 60.2081C63.0138 60.2081 62.8778 60.2641 62.7658 60.3761C62.6538 60.4881 62.5978 60.6601 62.5978 60.8921V62.0001H62.3338V60.0001H62.5978V60.2921C62.7418 60.0654 62.9458 59.9521 63.2098 59.9521C63.4978 59.9521 63.7005 60.0734 63.8178 60.3161C63.9618 60.0734 64.1778 59.9521 64.4658 59.9521ZM67.4004 61.7481C67.1977 61.9481 66.9497 62.0481 66.6564 62.0481C66.3631 62.0481 66.1137 61.9481 65.9084 61.7481C65.7057 61.5454 65.6044 61.2961 65.6044 61.0001C65.6044 60.7041 65.7057 60.4561 65.9084 60.2561C66.1137 60.0534 66.3631 59.9521 66.6564 59.9521C66.9497 59.9521 67.1977 60.0534 67.4004 60.2561C67.6057 60.4561 67.7084 60.7041 67.7084 61.0001C67.7084 61.2961 67.6057 61.5454 67.4004 61.7481ZM66.0964 61.5641C66.2484 61.7161 66.4351 61.7921 66.6564 61.7921C66.8777 61.7921 67.0644 61.7161 67.2164 61.5641C67.3684 61.4094 67.4444 61.2214 67.4444 61.0001C67.4444 60.7788 67.3684 60.5921 67.2164 60.4401C67.0644 60.2854 66.8777 60.2081 66.6564 60.2081C66.4351 60.2081 66.2484 60.2854 66.0964 60.4401C65.9444 60.5921 65.8684 60.7788 65.8684 61.0001C65.8684 61.2214 65.9444 61.4094 66.0964 61.5641ZM69.1711 60.2561H68.5951V61.4681C68.5951 61.5774 68.6165 61.6561 68.6591 61.7041C68.7018 61.7494 68.7658 61.7734 68.8511 61.7761C68.9365 61.7761 69.0431 61.7734 69.1711 61.7681V62.0001C68.8911 62.0428 68.6805 62.0228 68.5391 61.9401C68.4005 61.8574 68.3311 61.7001 68.3311 61.4681V60.2561H67.9111V60.0001H68.3311V59.5201L68.5951 59.4401V60.0001H69.1711V60.2561ZM69.8791 59.5201C69.8418 59.5574 69.7965 59.5761 69.7431 59.5761C69.6898 59.5761 69.6445 59.5574 69.6071 59.5201C69.5698 59.4828 69.5511 59.4374 69.5511 59.3841C69.5511 59.3308 69.5698 59.2854 69.6071 59.2481C69.6445 59.2108 69.6898 59.1921 69.7431 59.1921C69.7965 59.1921 69.8418 59.2108 69.8791 59.2481C69.9165 59.2854 69.9351 59.3308 69.9351 59.3841C69.9351 59.4374 69.9165 59.4828 69.8791 59.5201ZM69.6111 62.0001V60.0001H69.8751V62.0001H69.6111ZM72.1114 61.7481C71.9087 61.9481 71.6607 62.0481 71.3674 62.0481C71.074 62.0481 70.8247 61.9481 70.6194 61.7481C70.4167 61.5454 70.3154 61.2961 70.3154 61.0001C70.3154 60.7041 70.4167 60.4561 70.6194 60.2561C70.8247 60.0534 71.074 59.9521 71.3674 59.9521C71.6607 59.9521 71.9087 60.0534 72.1114 60.2561C72.3167 60.4561 72.4194 60.7041 72.4194 61.0001C72.4194 61.2961 72.3167 61.5454 72.1114 61.7481ZM70.8074 61.5641C70.9594 61.7161 71.146 61.7921 71.3674 61.7921C71.5887 61.7921 71.7754 61.7161 71.9274 61.5641C72.0794 61.4094 72.1553 61.2214 72.1553 61.0001C72.1553 60.7788 72.0794 60.5921 71.9274 60.4401C71.7754 60.2854 71.5887 60.2081 71.3674 60.2081C71.146 60.2081 70.9594 60.2854 70.8074 60.4401C70.6554 60.5921 70.5794 60.7788 70.5794 61.0001C70.5794 61.2214 70.6554 61.4094 70.8074 61.5641ZM73.7971 59.9521C74.0398 59.9521 74.2305 60.0268 74.3691 60.1761C74.5105 60.3228 74.5811 60.5214 74.5811 60.7721V62.0001H74.3171V60.7721C74.3171 60.5934 74.2691 60.4548 74.1731 60.3561C74.0798 60.2574 73.9465 60.2081 73.7731 60.2081C73.5811 60.2081 73.4251 60.2694 73.3051 60.3921C73.1851 60.5121 73.1251 60.6988 73.1251 60.9521V62.0001H72.8611V60.0001H73.1251V60.3121C73.2745 60.0721 73.4985 59.9521 73.7971 59.9521ZM77.1636 59.9521C77.4489 59.9521 77.6916 60.0534 77.8916 60.2561C78.0943 60.4588 78.1956 60.7068 78.1956 61.0001C78.1956 61.2934 78.0943 61.5414 77.8916 61.7441C77.6916 61.9468 77.4489 62.0481 77.1636 62.0481C76.8089 62.0481 76.5396 61.9014 76.3556 61.6081V62.0001H76.0916V59.2001H76.3556V60.3921C76.5396 60.0988 76.8089 59.9521 77.1636 59.9521ZM76.5836 61.5641C76.7356 61.7161 76.9223 61.7921 77.1436 61.7921C77.3649 61.7921 77.5516 61.7161 77.7036 61.5641C77.8556 61.4094 77.9316 61.2214 77.9316 61.0001C77.9316 60.7788 77.8556 60.5921 77.7036 60.4401C77.5516 60.2854 77.3649 60.2081 77.1436 60.2081C76.9223 60.2081 76.7356 60.2854 76.5836 60.4401C76.4316 60.5921 76.3556 60.7788 76.3556 61.0001C76.3556 61.2214 76.4316 61.4094 76.5836 61.5641ZM79.9964 60.0001H80.2764L79.4204 62.1841C79.3431 62.3814 79.2324 62.5361 79.0884 62.6481C78.9471 62.7628 78.7884 62.8134 78.6124 62.8001V62.5521C78.8524 62.5788 79.0351 62.4401 79.1604 62.1361L79.2124 62.0121L78.3164 60.0001H78.5964L79.3484 61.6761L79.9964 60.0001ZM82.7155 59.2001C83.0968 59.2001 83.4115 59.3361 83.6595 59.6081C83.9102 59.8774 84.0355 60.2081 84.0355 60.6001C84.0355 60.9921 83.9102 61.3241 83.6595 61.5961C83.4115 61.8654 83.0968 62.0001 82.7155 62.0001H81.6355V59.2001H82.7155ZM82.7155 61.7361C83.0222 61.7361 83.2728 61.6268 83.4675 61.4081C83.6648 61.1894 83.7635 60.9201 83.7635 60.6001C83.7635 60.2801 83.6648 60.0108 83.4675 59.7921C83.2728 59.5734 83.0222 59.4641 82.7155 59.4641H81.9155V61.7361H82.7155ZM85.3984 59.9521C85.6944 59.9521 85.9331 60.0574 86.1144 60.2681C86.2984 60.4761 86.3904 60.7228 86.3904 61.0081C86.3904 61.0374 86.3877 61.0788 86.3824 61.1321H84.6264C84.6531 61.3348 84.7384 61.4961 84.8824 61.6161C85.0291 61.7334 85.2091 61.7921 85.4224 61.7921C85.5744 61.7921 85.7051 61.7614 85.8144 61.7001C85.9264 61.6361 86.0104 61.5534 86.0664 61.4521L86.2984 61.5881C86.2104 61.7294 86.0904 61.8414 85.9384 61.9241C85.7864 62.0068 85.6131 62.0481 85.4184 62.0481C85.1037 62.0481 84.8477 61.9494 84.6504 61.7521C84.4531 61.5548 84.3544 61.3041 84.3544 61.0001C84.3544 60.7014 84.4517 60.4521 84.6464 60.2521C84.8411 60.0521 85.0917 59.9521 85.3984 59.9521ZM85.3984 60.2081C85.1904 60.2081 85.0157 60.2708 84.8744 60.3961C84.7357 60.5188 84.6531 60.6788 84.6264 60.8761H86.1184C86.0917 60.6654 86.0104 60.5014 85.8744 60.3841C85.7384 60.2668 85.5797 60.2081 85.3984 60.2081ZM87.7464 59.9521C87.989 59.9521 88.1797 60.0268 88.3184 60.1761C88.4597 60.3228 88.5303 60.5214 88.5303 60.7721V62.0001H88.2664V60.7721C88.2664 60.5934 88.2184 60.4548 88.1224 60.3561C88.029 60.2574 87.8957 60.2081 87.7224 60.2081C87.5304 60.2081 87.3744 60.2694 87.2544 60.3921C87.1344 60.5121 87.0744 60.6988 87.0744 60.9521V62.0001H86.8104V60.0001H87.0744V60.3121C87.2237 60.0721 87.4477 59.9521 87.7464 59.9521ZM89.3088 59.5201C89.2715 59.5574 89.2262 59.5761 89.1728 59.5761C89.1195 59.5761 89.0742 59.5574 89.0368 59.5201C88.9995 59.4828 88.9808 59.4374 88.9808 59.3841C88.9808 59.3308 88.9995 59.2854 89.0368 59.2481C89.0742 59.2108 89.1195 59.1921 89.1728 59.1921C89.2262 59.1921 89.2715 59.2108 89.3088 59.2481C89.3462 59.2854 89.3648 59.3308 89.3648 59.3841C89.3648 59.4374 89.3462 59.4828 89.3088 59.5201ZM89.0408 62.0001V60.0001H89.3048V62.0001H89.0408ZM90.073 60.5241C90.073 60.6148 90.113 60.6868 90.193 60.7401C90.273 60.7934 90.3704 60.8348 90.485 60.8641C90.5997 60.8934 90.7144 60.9268 90.829 60.9641C90.9437 60.9988 91.041 61.0588 91.121 61.1441C91.201 61.2268 91.241 61.3361 91.241 61.4721C91.241 61.6428 91.173 61.7814 91.037 61.8881C90.9037 61.9948 90.7304 62.0481 90.517 62.0481C90.325 62.0481 90.161 62.0054 90.025 61.9201C89.8917 61.8348 89.7984 61.7241 89.745 61.5881L89.969 61.4561C90.0064 61.5601 90.073 61.6428 90.169 61.7041C90.2677 61.7628 90.3837 61.7921 90.517 61.7921C90.6477 61.7921 90.757 61.7668 90.845 61.7161C90.933 61.6628 90.977 61.5814 90.977 61.4721C90.977 61.3814 90.937 61.3094 90.857 61.2561C90.777 61.2028 90.6797 61.1614 90.565 61.1321C90.4504 61.1028 90.3357 61.0708 90.221 61.0361C90.1064 60.9988 90.009 60.9388 89.929 60.8561C89.849 60.7708 89.809 60.6601 89.809 60.5241C89.809 60.3614 89.873 60.2254 90.001 60.1161C90.1317 60.0068 90.2957 59.9521 90.493 59.9521C90.6557 59.9521 90.7984 59.9894 90.921 60.0641C91.0437 60.1361 91.1344 60.2348 91.193 60.3601L90.973 60.4881C90.8957 60.3014 90.7357 60.2081 90.493 60.2081C90.3784 60.2081 90.2797 60.2361 90.197 60.2921C90.1144 60.3454 90.073 60.4228 90.073 60.5241ZM94.6814 62.0001H94.3134L93.0014 60.6441V62.0001H92.7214V59.2001H93.0014V60.4801L94.2734 59.2001H94.6414L93.2974 60.5601L94.6814 62.0001ZM96.3316 60.0001H96.5956V62.0001H96.3316V61.6881C96.1823 61.9281 95.9583 62.0481 95.6596 62.0481C95.417 62.0481 95.225 61.9748 95.0836 61.8281C94.945 61.6788 94.8756 61.4788 94.8756 61.2281V60.0001H95.1396V61.2281C95.1396 61.4068 95.1863 61.5454 95.2796 61.6441C95.3756 61.7428 95.5103 61.7921 95.6836 61.7921C95.8756 61.7921 96.0316 61.7321 96.1516 61.6121C96.2716 61.4894 96.3316 61.3014 96.3316 61.0481V60.0001ZM98.0901 59.9521C98.3328 59.9521 98.5234 60.0268 98.6621 60.1761C98.8034 60.3228 98.8741 60.5214 98.8741 60.7721V62.0001H98.6101V60.7721C98.6101 60.5934 98.5621 60.4548 98.4661 60.3561C98.3728 60.2574 98.2394 60.2081 98.0661 60.2081C97.8741 60.2081 97.7181 60.2694 97.5981 60.3921C97.4781 60.5121 97.4181 60.6988 97.4181 60.9521V62.0001H97.1541V60.0001H97.4181V60.3121C97.5674 60.0721 97.7914 59.9521 98.0901 59.9521ZM99.6526 59.5201C99.6152 59.5574 99.5699 59.5761 99.5166 59.5761C99.4632 59.5761 99.4179 59.5574 99.3806 59.5201C99.3432 59.4828 99.3246 59.4374 99.3246 59.3841C99.3246 59.3308 99.3432 59.2854 99.3806 59.2481C99.4179 59.2108 99.4632 59.1921 99.5166 59.1921C99.5699 59.1921 99.6152 59.2108 99.6526 59.2481C99.6899 59.2854 99.7086 59.3308 99.7086 59.3841C99.7086 59.4374 99.6899 59.4828 99.6526 59.5201ZM99.3846 62.0001V60.0001H99.6486V62.0001H99.3846ZM101.269 60.2561H100.693V61.4681C100.693 61.5774 100.714 61.6561 100.757 61.7041C100.799 61.7494 100.863 61.7734 100.949 61.7761C101.034 61.7761 101.141 61.7734 101.269 61.7681V62.0001C100.989 62.0428 100.778 62.0228 100.637 61.9401C100.498 61.8574 100.429 61.7001 100.429 61.4681V60.2561H100.009V60.0001H100.429V59.5201L100.693 59.4401V60.0001H101.269V60.2561ZM101.796 60.5241C101.796 60.6148 101.836 60.6868 101.916 60.7401C101.996 60.7934 102.093 60.8348 102.208 60.8641C102.322 60.8934 102.437 60.9268 102.552 60.9641C102.666 60.9988 102.764 61.0588 102.844 61.1441C102.924 61.2268 102.964 61.3361 102.964 61.4721C102.964 61.6428 102.896 61.7814 102.76 61.8881C102.626 61.9948 102.453 62.0481 102.24 62.0481C102.048 62.0481 101.884 62.0054 101.748 61.9201C101.614 61.8348 101.521 61.7241 101.468 61.5881L101.692 61.4561C101.729 61.5601 101.796 61.6428 101.892 61.7041C101.99 61.7628 102.106 61.7921 102.24 61.7921C102.37 61.7921 102.48 61.7668 102.568 61.7161C102.656 61.6628 102.7 61.5814 102.7 61.4721C102.7 61.3814 102.66 61.3094 102.58 61.2561C102.5 61.2028 102.402 61.1614 102.288 61.1321C102.173 61.1028 102.058 61.0708 101.944 61.0361C101.829 60.9988 101.732 60.9388 101.652 60.8561C101.572 60.7708 101.532 60.6601 101.532 60.5241C101.532 60.3614 101.596 60.2254 101.724 60.1161C101.854 60.0068 102.018 59.9521 102.216 59.9521C102.378 59.9521 102.521 59.9894 102.644 60.0641C102.766 60.1361 102.857 60.2348 102.916 60.3601L102.696 60.4881C102.618 60.3014 102.458 60.2081 102.216 60.2081C102.101 60.2081 102.002 60.2361 101.92 60.2921C101.837 60.3454 101.796 60.4228 101.796 60.5241ZM104.742 60.0001H105.022L104.166 62.1841C104.089 62.3814 103.978 62.5361 103.834 62.6481C103.693 62.7628 103.534 62.8134 103.358 62.8001V62.5521C103.598 62.5788 103.781 62.4401 103.906 62.1361L103.958 62.0121L103.062 60.0001H103.342L104.094 61.6761L104.742 60.0001ZM106.278 59.9521C106.52 59.9521 106.711 60.0268 106.85 60.1761C106.991 60.3228 107.061 60.5214 107.061 60.7721V62.0001H106.798V60.7721C106.798 60.5934 106.75 60.4548 106.654 60.3561C106.56 60.2574 106.427 60.2081 106.254 60.2081C106.062 60.2081 105.906 60.2694 105.786 60.3921C105.666 60.5121 105.606 60.6988 105.606 60.9521V62.0001H105.342V60.0001H105.606V60.3121C105.755 60.0721 105.979 59.9521 106.278 59.9521ZM107.908 61.9761C107.865 62.0188 107.813 62.0401 107.752 62.0401C107.691 62.0401 107.639 62.0188 107.596 61.9761C107.553 61.9334 107.532 61.8814 107.532 61.8201C107.532 61.7588 107.553 61.7068 107.596 61.6641C107.639 61.6214 107.691 61.6001 107.752 61.6001C107.813 61.6001 107.865 61.6214 107.908 61.6641C107.951 61.7068 107.972 61.7588 107.972 61.8201C107.972 61.8814 107.951 61.9334 107.908 61.9761ZM2.33906 66.2001L1.32706 67.8521V69.0001H1.04706V67.8441L0.0390625 66.2001H0.355063L1.19106 67.5721L2.02306 66.2001H2.33906ZM3.93553 68.7481C3.73286 68.9481 3.48486 69.0481 3.19153 69.0481C2.8982 69.0481 2.64886 68.9481 2.44353 68.7481C2.24086 68.5454 2.13953 68.2961 2.13953 68.0001C2.13953 67.7041 2.24086 67.4561 2.44353 67.2561C2.64886 67.0534 2.8982 66.9521 3.19153 66.9521C3.48486 66.9521 3.73286 67.0534 3.93553 67.2561C4.14086 67.4561 4.24353 67.7041 4.24353 68.0001C4.24353 68.2961 4.14086 68.5454 3.93553 68.7481ZM2.63153 68.5641C2.78353 68.7161 2.9702 68.7921 3.19153 68.7921C3.41286 68.7921 3.59953 68.7161 3.75153 68.5641C3.90353 68.4094 3.97953 68.2214 3.97953 68.0001C3.97953 67.7788 3.90353 67.5921 3.75153 67.4401C3.59953 67.2854 3.41286 67.2081 3.19153 67.2081C2.9702 67.2081 2.78353 67.2854 2.63153 67.4401C2.47953 67.5921 2.40353 67.7788 2.40353 68.0001C2.40353 68.2214 2.47953 68.4094 2.63153 68.5641ZM6.09331 67.0001H6.35731V69.0001H6.09331V68.6881C5.94398 68.9281 5.71998 69.0481 5.42131 69.0481C5.17864 69.0481 4.98664 68.9748 4.84531 68.8281C4.70664 68.6788 4.63731 68.4788 4.63731 68.2281V67.0001H4.90131V68.2281C4.90131 68.4068 4.94798 68.5454 5.04131 68.6441C5.13731 68.7428 5.27198 68.7921 5.44531 68.7921C5.63731 68.7921 5.79331 68.7321 5.91331 68.6121C6.03331 68.4894 6.09331 68.3014 6.09331 68.0481V67.0001ZM7.17978 67.3321C7.30245 67.0894 7.51311 66.9681 7.81178 66.9681V67.2241C7.63045 67.2241 7.47978 67.2774 7.35978 67.3841C7.23978 67.4908 7.17978 67.6588 7.17978 67.8881V69.0001H6.91578V67.0001H7.17978V67.3321ZM10.2456 66.9521C10.531 66.9521 10.7736 67.0534 10.9736 67.2561C11.1763 67.4588 11.2776 67.7068 11.2776 68.0001C11.2776 68.2934 11.1763 68.5414 10.9736 68.7441C10.7736 68.9468 10.531 69.0481 10.2456 69.0481C9.89092 69.0481 9.62159 68.9014 9.43759 68.6081V69.0001H9.17359V66.2001H9.43759V67.3921C9.62159 67.0988 9.89092 66.9521 10.2456 66.9521ZM9.66559 68.5641C9.81759 68.7161 10.0043 68.7921 10.2256 68.7921C10.447 68.7921 10.6336 68.7161 10.7856 68.5641C10.9376 68.4094 11.0136 68.2214 11.0136 68.0001C11.0136 67.7788 10.9376 67.5921 10.7856 67.4401C10.6336 67.2854 10.447 67.2081 10.2256 67.2081C10.0043 67.2081 9.81759 67.2854 9.66559 67.4401C9.51359 67.5921 9.43759 67.7788 9.43759 68.0001C9.43759 68.2214 9.51359 68.4094 9.66559 68.5641ZM12.6406 66.9521C12.9366 66.9521 13.1753 67.0574 13.3566 67.2681C13.5406 67.4761 13.6326 67.7228 13.6326 68.0081C13.6326 68.0374 13.6299 68.0788 13.6246 68.1321H11.8686C11.8953 68.3348 11.9806 68.4961 12.1246 68.6161C12.2713 68.7334 12.4513 68.7921 12.6646 68.7921C12.8166 68.7921 12.9473 68.7614 13.0566 68.7001C13.1686 68.6361 13.2526 68.5534 13.3086 68.4521L13.5406 68.5881C13.4526 68.7294 13.3326 68.8414 13.1806 68.9241C13.0286 69.0068 12.8553 69.0481 12.6606 69.0481C12.3459 69.0481 12.0899 68.9494 11.8926 68.7521C11.6953 68.5548 11.5966 68.3041 11.5966 68.0001C11.5966 67.7014 11.6939 67.4521 11.8886 67.2521C12.0833 67.0521 12.3339 66.9521 12.6406 66.9521ZM12.6406 67.2081C12.4326 67.2081 12.2579 67.2708 12.1166 67.3961C11.9779 67.5188 11.8953 67.6788 11.8686 67.8761H13.3606C13.3339 67.6654 13.2526 67.5014 13.1166 67.3841C12.9806 67.2668 12.8219 67.2081 12.6406 67.2081ZM14.1824 67.5241C14.1824 67.6148 14.2224 67.6868 14.3024 67.7401C14.3824 67.7934 14.4797 67.8348 14.5944 67.8641C14.7091 67.8934 14.8237 67.9268 14.9384 67.9641C15.0531 67.9988 15.1504 68.0588 15.2304 68.1441C15.3104 68.2268 15.3504 68.3361 15.3504 68.4721C15.3504 68.6428 15.2824 68.7814 15.1464 68.8881C15.0131 68.9948 14.8397 69.0481 14.6264 69.0481C14.4344 69.0481 14.2704 69.0054 14.1344 68.9201C14.0011 68.8348 13.9077 68.7241 13.8544 68.5881L14.0784 68.4561C14.1157 68.5601 14.1824 68.6428 14.2784 68.7041C14.3771 68.7628 14.4931 68.7921 14.6264 68.7921C14.7571 68.7921 14.8664 68.7668 14.9544 68.7161C15.0424 68.6628 15.0864 68.5814 15.0864 68.4721C15.0864 68.3814 15.0464 68.3094 14.9664 68.2561C14.8864 68.2028 14.7891 68.1614 14.6744 68.1321C14.5597 68.1028 14.4451 68.0708 14.3304 68.0361C14.2157 67.9988 14.1184 67.9388 14.0384 67.8561C13.9584 67.7708 13.9184 67.6601 13.9184 67.5241C13.9184 67.3614 13.9824 67.2254 14.1104 67.1161C14.2411 67.0068 14.4051 66.9521 14.6024 66.9521C14.7651 66.9521 14.9077 66.9894 15.0304 67.0641C15.1531 67.1361 15.2437 67.2348 15.3024 67.3601L15.0824 67.4881C15.0051 67.3014 14.8451 67.2081 14.6024 67.2081C14.4877 67.2081 14.3891 67.2361 14.3064 67.2921C14.2237 67.3454 14.1824 67.4228 14.1824 67.5241ZM16.7727 67.2561H16.1967V68.4681C16.1967 68.5774 16.218 68.6561 16.2607 68.7041C16.3034 68.7494 16.3674 68.7734 16.4527 68.7761C16.538 68.7761 16.6447 68.7734 16.7727 68.7681V69.0001C16.4927 69.0428 16.282 69.0228 16.1407 68.9401C16.002 68.8574 15.9327 68.7001 15.9327 68.4681V67.2561H15.5127V67.0001H15.9327V66.5201L16.1967 66.4401V67.0001H16.7727V67.2561ZM19.9327 66.2001H20.1967V69.0001H19.9327V68.6081C19.7487 68.9014 19.4794 69.0481 19.1247 69.0481C18.8394 69.0481 18.5954 68.9468 18.3927 68.7441C18.1927 68.5414 18.0927 68.2934 18.0927 68.0001C18.0927 67.7068 18.1927 67.4588 18.3927 67.2561C18.5954 67.0534 18.8394 66.9521 19.1247 66.9521C19.4794 66.9521 19.7487 67.0988 19.9327 67.3921V66.2001ZM18.5847 68.5641C18.7367 68.7161 18.9234 68.7921 19.1447 68.7921C19.366 68.7921 19.5527 68.7161 19.7047 68.5641C19.8567 68.4094 19.9327 68.2214 19.9327 68.0001C19.9327 67.7788 19.8567 67.5921 19.7047 67.4401C19.5527 67.2854 19.366 67.2081 19.1447 67.2081C18.9234 67.2081 18.7367 67.2854 18.5847 67.4401C18.4327 67.5921 18.3567 67.7788 18.3567 68.0001C18.3567 68.2214 18.4327 68.4094 18.5847 68.5641ZM21.0237 66.5201C20.9863 66.5574 20.941 66.5761 20.8877 66.5761C20.8343 66.5761 20.789 66.5574 20.7517 66.5201C20.7143 66.4828 20.6957 66.4374 20.6957 66.3841C20.6957 66.3308 20.7143 66.2854 20.7517 66.2481C20.789 66.2108 20.8343 66.1921 20.8877 66.1921C20.941 66.1921 20.9863 66.2108 21.0237 66.2481C21.061 66.2854 21.0797 66.3308 21.0797 66.3841C21.0797 66.4374 21.061 66.4828 21.0237 66.5201ZM20.7557 69.0001V67.0001H21.0197V69.0001H20.7557ZM23.2999 67.0001H23.5639V68.9201C23.5639 69.2081 23.4652 69.4348 23.2679 69.6001C23.0705 69.7654 22.8345 69.8481 22.5599 69.8481C22.0905 69.8481 21.7745 69.6854 21.6119 69.3601L21.8439 69.2281C21.9639 69.4708 22.2025 69.5921 22.5599 69.5921C22.7892 69.5921 22.9692 69.5308 23.0999 69.4081C23.2332 69.2881 23.2999 69.1254 23.2999 68.9201V68.6081C23.1159 68.9014 22.8465 69.0481 22.4919 69.0481C22.2065 69.0481 21.9625 68.9468 21.7599 68.7441C21.5599 68.5414 21.4599 68.2934 21.4599 68.0001C21.4599 67.7068 21.5599 67.4588 21.7599 67.2561C21.9625 67.0534 22.2065 66.9521 22.4919 66.9521C22.8465 66.9521 23.1159 67.0988 23.2999 67.3921V67.0001ZM21.9519 68.5641C22.1039 68.7161 22.2905 68.7921 22.5119 68.7921C22.7332 68.7921 22.9199 68.7161 23.0719 68.5641C23.2239 68.4094 23.2999 68.2214 23.2999 68.0001C23.2999 67.7788 23.2239 67.5921 23.0719 67.4401C22.9199 67.2854 22.7332 67.2081 22.5119 67.2081C22.2905 67.2081 22.1039 67.2854 21.9519 67.4401C21.7999 67.5921 21.7239 67.7788 21.7239 68.0001C21.7239 68.2214 21.7999 68.4094 21.9519 68.5641ZM24.3909 66.5201C24.3535 66.5574 24.3082 66.5761 24.2549 66.5761C24.2015 66.5761 24.1562 66.5574 24.1189 66.5201C24.0815 66.4828 24.0629 66.4374 24.0629 66.3841C24.0629 66.3308 24.0815 66.2854 24.1189 66.2481C24.1562 66.2108 24.2015 66.1921 24.2549 66.1921C24.3082 66.1921 24.3535 66.2108 24.3909 66.2481C24.4282 66.2854 24.4469 66.3308 24.4469 66.3841C24.4469 66.4374 24.4282 66.4828 24.3909 66.5201ZM24.1229 69.0001V67.0001H24.3869V69.0001H24.1229ZM26.0071 67.2561H25.4311V68.4681C25.4311 68.5774 25.4524 68.6561 25.4951 68.7041C25.5377 68.7494 25.6017 68.7734 25.6871 68.7761C25.7724 68.7761 25.8791 68.7734 26.0071 68.7681V69.0001C25.7271 69.0428 25.5164 69.0228 25.3751 68.9401C25.2364 68.8574 25.1671 68.7001 25.1671 68.4681V67.2561H24.7471V67.0001H25.1671V66.5201L25.4311 66.4401V67.0001H26.0071V67.2561ZM28.046 67.0001H28.31V69.0001H28.046V68.6081C27.862 68.9014 27.5926 69.0481 27.238 69.0481C26.9526 69.0481 26.7086 68.9468 26.506 68.7441C26.306 68.5414 26.206 68.2934 26.206 68.0001C26.206 67.7068 26.306 67.4588 26.506 67.2561C26.7086 67.0534 26.9526 66.9521 27.238 66.9521C27.5926 66.9521 27.862 67.0988 28.046 67.3921V67.0001ZM26.698 68.5641C26.85 68.7161 27.0366 68.7921 27.258 68.7921C27.4793 68.7921 27.666 68.7161 27.818 68.5641C27.97 68.4094 28.046 68.2214 28.046 68.0001C28.046 67.7788 27.97 67.5921 27.818 67.4401C27.666 67.2854 27.4793 67.2081 27.258 67.2081C27.0366 67.2081 26.85 67.2854 26.698 67.4401C26.546 67.5921 26.47 67.7788 26.47 68.0001C26.47 68.2214 26.546 68.4094 26.698 68.5641ZM28.8689 69.0001V66.0801H29.1329V69.0001H28.8689ZM31.6172 66.9521C31.9132 66.9521 32.1518 67.0574 32.3332 67.2681C32.5172 67.4761 32.6092 67.7228 32.6092 68.0081C32.6092 68.0374 32.6065 68.0788 32.6012 68.1321H30.8452C30.8718 68.3348 30.9572 68.4961 31.1012 68.6161C31.2478 68.7334 31.4278 68.7921 31.6412 68.7921C31.7932 68.7921 31.9238 68.7614 32.0332 68.7001C32.1452 68.6361 32.2292 68.5534 32.2852 68.4521L32.5172 68.5881C32.4292 68.7294 32.3092 68.8414 32.1572 68.9241C32.0052 69.0068 31.8318 69.0481 31.6372 69.0481C31.3225 69.0481 31.0665 68.9494 30.8692 68.7521C30.6718 68.5548 30.5732 68.3041 30.5732 68.0001C30.5732 67.7014 30.6705 67.4521 30.8652 67.2521C31.0598 67.0521 31.3105 66.9521 31.6172 66.9521ZM31.6172 67.2081C31.4092 67.2081 31.2345 67.2708 31.0932 67.3961C30.9545 67.5188 30.8718 67.6788 30.8452 67.8761H32.3372C32.3105 67.6654 32.2292 67.5014 32.0932 67.3841C31.9572 67.2668 31.7985 67.2081 31.6172 67.2081ZM34.631 69.0001H34.315L33.691 68.1761L33.067 69.0001H32.751L33.535 67.9641L32.803 67.0001H33.119L33.691 67.7561L34.263 67.0001H34.579L33.851 67.9641L34.631 69.0001ZM36.062 66.9521C36.3474 66.9521 36.59 67.0534 36.79 67.2561C36.9927 67.4588 37.094 67.7068 37.094 68.0001C37.094 68.2934 36.9927 68.5414 36.79 68.7441C36.59 68.9468 36.3474 69.0481 36.062 69.0481C35.7074 69.0481 35.438 68.9014 35.254 68.6081V69.8001H34.99V67.0001H35.254V67.3921C35.438 67.0988 35.7074 66.9521 36.062 66.9521ZM35.482 68.5641C35.634 68.7161 35.8207 68.7921 36.042 68.7921C36.2634 68.7921 36.45 68.7161 36.602 68.5641C36.754 68.4094 36.83 68.2214 36.83 68.0001C36.83 67.7788 36.754 67.5921 36.602 67.4401C36.45 67.2854 36.2634 67.2081 36.042 67.2081C35.8207 67.2081 35.634 67.2854 35.482 67.4401C35.33 67.5921 35.254 67.7788 35.254 68.0001C35.254 68.2214 35.33 68.4094 35.482 68.5641ZM38.457 66.9521C38.753 66.9521 38.9917 67.0574 39.173 67.2681C39.357 67.4761 39.449 67.7228 39.449 68.0081C39.449 68.0374 39.4463 68.0788 39.441 68.1321H37.685C37.7117 68.3348 37.797 68.4961 37.941 68.6161C38.0877 68.7334 38.2677 68.7921 38.481 68.7921C38.633 68.7921 38.7637 68.7614 38.873 68.7001C38.985 68.6361 39.069 68.5534 39.125 68.4521L39.357 68.5881C39.269 68.7294 39.149 68.8414 38.997 68.9241C38.845 69.0068 38.6717 69.0481 38.477 69.0481C38.1623 69.0481 37.9063 68.9494 37.709 68.7521C37.5117 68.5548 37.413 68.3041 37.413 68.0001C37.413 67.7014 37.5103 67.4521 37.705 67.2521C37.8997 67.0521 38.1503 66.9521 38.457 66.9521ZM38.457 67.2081C38.249 67.2081 38.0743 67.2708 37.933 67.3961C37.7943 67.5188 37.7117 67.6788 37.685 67.8761H39.177C39.1503 67.6654 39.069 67.5014 38.933 67.3841C38.797 67.2668 38.6383 67.2081 38.457 67.2081ZM40.1329 67.3321C40.2556 67.0894 40.4663 66.9681 40.7649 66.9681V67.2241C40.5836 67.2241 40.4329 67.2774 40.3129 67.3841C40.1929 67.4908 40.1329 67.6588 40.1329 67.8881V69.0001H39.8689V67.0001H40.1329V67.3321ZM41.3948 66.5201C41.3574 66.5574 41.3121 66.5761 41.2588 66.5761C41.2054 66.5761 41.1601 66.5574 41.1228 66.5201C41.0854 66.4828 41.0668 66.4374 41.0668 66.3841C41.0668 66.3308 41.0854 66.2854 41.1228 66.2481C41.1601 66.2108 41.2054 66.1921 41.2588 66.1921C41.3121 66.1921 41.3574 66.2108 41.3948 66.2481C41.4321 66.2854 41.4508 66.3308 41.4508 66.3841C41.4508 66.4374 41.4321 66.4828 41.3948 66.5201ZM41.1268 69.0001V67.0001H41.3908V69.0001H41.1268ZM42.875 66.9521C43.171 66.9521 43.4096 67.0574 43.591 67.2681C43.775 67.4761 43.867 67.7228 43.867 68.0081C43.867 68.0374 43.8643 68.0788 43.859 68.1321H42.103C42.1296 68.3348 42.215 68.4961 42.359 68.6161C42.5056 68.7334 42.6856 68.7921 42.899 68.7921C43.051 68.7921 43.1816 68.7614 43.291 68.7001C43.403 68.6361 43.487 68.5534 43.543 68.4521L43.775 68.5881C43.687 68.7294 43.567 68.8414 43.415 68.9241C43.263 69.0068 43.0896 69.0481 42.895 69.0481C42.5803 69.0481 42.3243 68.9494 42.127 68.7521C41.9296 68.5548 41.831 68.3041 41.831 68.0001C41.831 67.7014 41.9283 67.4521 42.123 67.2521C42.3176 67.0521 42.5683 66.9521 42.875 66.9521ZM42.875 67.2081C42.667 67.2081 42.4923 67.2708 42.351 67.3961C42.2123 67.5188 42.1296 67.6788 42.103 67.8761H43.595C43.5683 67.6654 43.487 67.5014 43.351 67.3841C43.215 67.2668 43.0563 67.2081 42.875 67.2081ZM45.2229 66.9521C45.4656 66.9521 45.6562 67.0268 45.7949 67.1761C45.9362 67.3228 46.0069 67.5214 46.0069 67.7721V69.0001H45.7429V67.7721C45.7429 67.5934 45.6949 67.4548 45.5989 67.3561C45.5056 67.2574 45.3722 67.2081 45.1989 67.2081C45.0069 67.2081 44.8509 67.2694 44.7309 67.3921C44.6109 67.5121 44.5509 67.6988 44.5509 67.9521V69.0001H44.2869V67.0001H44.5509V67.3121C44.7002 67.0721 44.9242 66.9521 45.2229 66.9521ZM47.4494 69.0481C47.148 69.0481 46.8974 68.9481 46.6974 68.7481C46.4974 68.5454 46.3974 68.2961 46.3974 68.0001C46.3974 67.7041 46.4974 67.4561 46.6974 67.2561C46.8974 67.0534 47.148 66.9521 47.4494 66.9521C47.6467 66.9521 47.824 67.0001 47.9814 67.0961C48.1387 67.1894 48.2534 67.3161 48.3254 67.4761L48.1094 67.6001C48.056 67.4801 47.9694 67.3854 47.8494 67.3161C47.732 67.2441 47.5987 67.2081 47.4494 67.2081C47.228 67.2081 47.0414 67.2854 46.8894 67.4401C46.7374 67.5921 46.6614 67.7788 46.6614 68.0001C46.6614 68.2214 46.7374 68.4094 46.8894 68.5641C47.0414 68.7161 47.228 68.7921 47.4494 68.7921C47.5987 68.7921 47.732 68.7574 47.8494 68.6881C47.9667 68.6161 48.0587 68.5201 48.1254 68.4001L48.3454 68.5281C48.2627 68.6881 48.1414 68.8148 47.9814 68.9081C47.8214 69.0014 47.644 69.0481 47.4494 69.0481ZM49.6289 66.9521C49.9249 66.9521 50.1635 67.0574 50.3449 67.2681C50.5289 67.4761 50.6209 67.7228 50.6209 68.0081C50.6209 68.0374 50.6182 68.0788 50.6129 68.1321H48.8569C48.8835 68.3348 48.9689 68.4961 49.1129 68.6161C49.2595 68.7334 49.4395 68.7921 49.6529 68.7921C49.8049 68.7921 49.9355 68.7614 50.0449 68.7001C50.1569 68.6361 50.2409 68.5534 50.2969 68.4521L50.5289 68.5881C50.4409 68.7294 50.3209 68.8414 50.1689 68.9241C50.0169 69.0068 49.8435 69.0481 49.6489 69.0481C49.3342 69.0481 49.0782 68.9494 48.8809 68.7521C48.6835 68.5548 48.5849 68.3041 48.5849 68.0001C48.5849 67.7014 48.6822 67.4521 48.8769 67.2521C49.0715 67.0521 49.3222 66.9521 49.6289 66.9521ZM49.6289 67.2081C49.4209 67.2081 49.2462 67.2708 49.1049 67.3961C48.9662 67.5188 48.8835 67.6788 48.8569 67.8761H50.3489C50.3222 67.6654 50.2409 67.5014 50.1049 67.3841C49.9689 67.2668 49.8102 67.2081 49.6289 67.2081ZM54.4488 67.0001H54.7208L54.1048 69.0001H53.8168L53.3008 67.3881L52.7848 69.0001H52.4968L51.8808 67.0001H52.1528L52.6448 68.6601L53.1688 67.0001H53.4328L53.9568 68.6601L54.4488 67.0001ZM55.3869 66.5201C55.3496 66.5574 55.3043 66.5761 55.2509 66.5761C55.1976 66.5761 55.1523 66.5574 55.1149 66.5201C55.0776 66.4828 55.0589 66.4374 55.0589 66.3841C55.0589 66.3308 55.0776 66.2854 55.1149 66.2481C55.1523 66.2108 55.1976 66.1921 55.2509 66.1921C55.3043 66.1921 55.3496 66.2108 55.3869 66.2481C55.4243 66.2854 55.4429 66.3308 55.4429 66.3841C55.4429 66.4374 55.4243 66.4828 55.3869 66.5201ZM55.1189 69.0001V67.0001H55.3829V69.0001H55.1189ZM57.0032 67.2561H56.4272V68.4681C56.4272 68.5774 56.4485 68.6561 56.4912 68.7041C56.5338 68.7494 56.5978 68.7734 56.6832 68.7761C56.7685 68.7761 56.8752 68.7734 57.0032 68.7681V69.0001C56.7232 69.0428 56.5125 69.0228 56.3712 68.9401C56.2325 68.8574 56.1632 68.7001 56.1632 68.4681V67.2561H55.7432V67.0001H56.1632V66.5201L56.4272 66.4401V67.0001H57.0032V67.2561ZM58.3792 66.9521C58.6218 66.9521 58.8125 67.0268 58.9512 67.1761C59.0925 67.3228 59.1632 67.5214 59.1632 67.7721V69.0001H58.8992V67.7721C58.8992 67.5934 58.8512 67.4548 58.7552 67.3561C58.6618 67.2574 58.5285 67.2081 58.3552 67.2081C58.1632 67.2081 58.0072 67.2694 57.8872 67.3921C57.7672 67.5121 57.7072 67.6988 57.7072 67.9521V69.0001H57.4432V66.2001H57.7072V67.3121C57.8565 67.0721 58.0805 66.9521 58.3792 66.9521ZM62.8056 66.9521C63.0296 66.9521 63.2096 67.0241 63.3456 67.1681C63.4843 67.3121 63.5536 67.5068 63.5536 67.7521V69.0001H63.2896V67.7521C63.2896 67.5788 63.2443 67.4454 63.1536 67.3521C63.0656 67.2561 62.9483 67.2081 62.8016 67.2081C62.6363 67.2081 62.5016 67.2641 62.3976 67.3761C62.2963 67.4854 62.2456 67.6574 62.2456 67.8921V69.0001H61.9816V67.7521C61.9816 67.5761 61.939 67.4414 61.8536 67.3481C61.771 67.2548 61.6576 67.2081 61.5136 67.2081C61.3536 67.2081 61.2176 67.2641 61.1056 67.3761C60.9936 67.4881 60.9376 67.6601 60.9376 67.8921V69.0001H60.6736V67.0001H60.9376V67.2921C61.0816 67.0654 61.2856 66.9521 61.5496 66.9521C61.8376 66.9521 62.0403 67.0734 62.1576 67.3161C62.3016 67.0734 62.5176 66.9521 62.8056 66.9521ZM65.7403 68.7481C65.5376 68.9481 65.2896 69.0481 64.9963 69.0481C64.7029 69.0481 64.4536 68.9481 64.2483 68.7481C64.0456 68.5454 63.9443 68.2961 63.9443 68.0001C63.9443 67.7041 64.0456 67.4561 64.2483 67.2561C64.4536 67.0534 64.7029 66.9521 64.9963 66.9521C65.2896 66.9521 65.5376 67.0534 65.7403 67.2561C65.9456 67.4561 66.0483 67.7041 66.0483 68.0001C66.0483 68.2961 65.9456 68.5454 65.7403 68.7481ZM64.4363 68.5641C64.5883 68.7161 64.7749 68.7921 64.9963 68.7921C65.2176 68.7921 65.4043 68.7161 65.5563 68.5641C65.7083 68.4094 65.7843 68.2214 65.7843 68.0001C65.7843 67.7788 65.7083 67.5921 65.5563 67.4401C65.4043 67.2854 65.2176 67.2081 64.9963 67.2081C64.7749 67.2081 64.5883 67.2854 64.4363 67.4401C64.2843 67.5921 64.2083 67.7788 64.2083 68.0001C64.2083 68.2214 64.2843 68.4094 64.4363 68.5641ZM67.511 67.2561H66.935V68.4681C66.935 68.5774 66.9563 68.6561 66.999 68.7041C67.0416 68.7494 67.1056 68.7734 67.191 68.7761C67.2763 68.7761 67.383 68.7734 67.511 68.7681V69.0001C67.231 69.0428 67.0203 69.0228 66.879 68.9401C66.7403 68.8574 66.671 68.7001 66.671 68.4681V67.2561H66.251V67.0001H66.671V66.5201L66.935 66.4401V67.0001H67.511V67.2561ZM68.219 66.5201C68.1816 66.5574 68.1363 66.5761 68.083 66.5761C68.0296 66.5761 67.9843 66.5574 67.947 66.5201C67.9096 66.4828 67.891 66.4374 67.891 66.3841C67.891 66.3308 67.9096 66.2854 67.947 66.2481C67.9843 66.2108 68.0296 66.1921 68.083 66.1921C68.1363 66.1921 68.1816 66.2108 68.219 66.2481C68.2563 66.2854 68.275 66.3308 68.275 66.3841C68.275 66.4374 68.2563 66.4828 68.219 66.5201ZM67.951 69.0001V67.0001H68.215V69.0001H67.951ZM70.2152 67.0001H70.4952L69.6752 69.0001H69.3552L68.5352 67.0001H68.8152L69.5152 68.7241L70.2152 67.0001ZM71.6601 66.9521C71.9561 66.9521 72.1948 67.0574 72.3761 67.2681C72.5601 67.4761 72.6521 67.7228 72.6521 68.0081C72.6521 68.0374 72.6495 68.0788 72.6441 68.1321H70.8881C70.9148 68.3348 71.0001 68.4961 71.1441 68.6161C71.2908 68.7334 71.4708 68.7921 71.6841 68.7921C71.8361 68.7921 71.9668 68.7614 72.0761 68.7001C72.1881 68.6361 72.2721 68.5534 72.3281 68.4521L72.5601 68.5881C72.4721 68.7294 72.3521 68.8414 72.2001 68.9241C72.0481 69.0068 71.8748 69.0481 71.6801 69.0481C71.3655 69.0481 71.1095 68.9494 70.9121 68.7521C70.7148 68.5548 70.6161 68.3041 70.6161 68.0001C70.6161 67.7014 70.7135 67.4521 70.9081 67.2521C71.1028 67.0521 71.3535 66.9521 71.6601 66.9521ZM71.6601 67.2081C71.4521 67.2081 71.2775 67.2708 71.1361 67.3961C70.9975 67.5188 70.9148 67.6788 70.8881 67.8761H72.3801C72.3535 67.6654 72.2721 67.5014 72.1361 67.3841C72.0001 67.2668 71.8415 67.2081 71.6601 67.2081ZM75.7921 67.0001H76.0561V69.0001H75.7921V68.6081C75.6081 68.9014 75.3387 69.0481 74.9841 69.0481C74.6987 69.0481 74.4547 68.9468 74.2521 68.7441C74.0521 68.5414 73.9521 68.2934 73.9521 68.0001C73.9521 67.7068 74.0521 67.4588 74.2521 67.2561C74.4547 67.0534 74.6987 66.9521 74.9841 66.9521C75.3387 66.9521 75.6081 67.0988 75.7921 67.3921V67.0001ZM74.4441 68.5641C74.5961 68.7161 74.7827 68.7921 75.0041 68.7921C75.2254 68.7921 75.4121 68.7161 75.5641 68.5641C75.7161 68.4094 75.7921 68.2214 75.7921 68.0001C75.7921 67.7788 75.7161 67.5921 75.5641 67.4401C75.4121 67.2854 75.2254 67.2081 75.0041 67.2081C74.7827 67.2081 74.5961 67.2854 74.4441 67.4401C74.2921 67.5921 74.2161 67.7788 74.2161 68.0001C74.2161 68.2214 74.2921 68.4094 74.4441 68.5641ZM78.335 67.0001H78.599V68.9201C78.599 69.2081 78.5004 69.4348 78.303 69.6001C78.1057 69.7654 77.8697 69.8481 77.595 69.8481C77.1257 69.8481 76.8097 69.6854 76.647 69.3601L76.879 69.2281C76.999 69.4708 77.2377 69.5921 77.595 69.5921C77.8244 69.5921 78.0044 69.5308 78.135 69.4081C78.2684 69.2881 78.335 69.1254 78.335 68.9201V68.6081C78.151 68.9014 77.8817 69.0481 77.527 69.0481C77.2417 69.0481 76.9977 68.9468 76.795 68.7441C76.595 68.5414 76.495 68.2934 76.495 68.0001C76.495 67.7068 76.595 67.4588 76.795 67.2561C76.9977 67.0534 77.2417 66.9521 77.527 66.9521C77.8817 66.9521 78.151 67.0988 78.335 67.3921V67.0001ZM76.987 68.5641C77.139 68.7161 77.3257 68.7921 77.547 68.7921C77.7684 68.7921 77.955 68.7161 78.107 68.5641C78.259 68.4094 78.335 68.2214 78.335 68.0001C78.335 67.7788 78.259 67.5921 78.107 67.4401C77.955 67.2854 77.7684 67.2081 77.547 67.2081C77.3257 67.2081 77.139 67.2854 76.987 67.4401C76.835 67.5921 76.759 67.7788 76.759 68.0001C76.759 68.2214 76.835 68.4094 76.987 68.5641ZM80.082 66.9521C80.378 66.9521 80.6167 67.0574 80.798 67.2681C80.982 67.4761 81.074 67.7228 81.074 68.0081C81.074 68.0374 81.0713 68.0788 81.066 68.1321H79.31C79.3367 68.3348 79.422 68.4961 79.566 68.6161C79.7127 68.7334 79.8927 68.7921 80.106 68.7921C80.258 68.7921 80.3887 68.7614 80.498 68.7001C80.61 68.6361 80.694 68.5534 80.75 68.4521L80.982 68.5881C80.894 68.7294 80.774 68.8414 80.622 68.9241C80.47 69.0068 80.2967 69.0481 80.102 69.0481C79.7873 69.0481 79.5313 68.9494 79.334 68.7521C79.1367 68.5548 79.038 68.3041 79.038 68.0001C79.038 67.7014 79.1353 67.4521 79.33 67.2521C79.5247 67.0521 79.7753 66.9521 80.082 66.9521ZM80.082 67.2081C79.874 67.2081 79.6993 67.2708 79.558 67.3961C79.4193 67.5188 79.3367 67.6788 79.31 67.8761H80.802C80.7753 67.6654 80.694 67.5014 80.558 67.3841C80.422 67.2668 80.2633 67.2081 80.082 67.2081ZM82.4299 66.9521C82.6726 66.9521 82.8633 67.0268 83.0019 67.1761C83.1433 67.3228 83.2139 67.5214 83.2139 67.7721V69.0001H82.9499V67.7721C82.9499 67.5934 82.9019 67.4548 82.8059 67.3561C82.7126 67.2574 82.5793 67.2081 82.4059 67.2081C82.2139 67.2081 82.0579 67.2694 81.9379 67.3921C81.8179 67.5121 81.7579 67.6988 81.7579 67.9521V69.0001H81.4939V67.0001H81.7579V67.3121C81.9073 67.0721 82.1313 66.9521 82.4299 66.9521ZM84.6564 69.0481C84.3551 69.0481 84.1044 68.9481 83.9044 68.7481C83.7044 68.5454 83.6044 68.2961 83.6044 68.0001C83.6044 67.7041 83.7044 67.4561 83.9044 67.2561C84.1044 67.0534 84.3551 66.9521 84.6564 66.9521C84.8537 66.9521 85.0311 67.0001 85.1884 67.0961C85.3457 67.1894 85.4604 67.3161 85.5324 67.4761L85.3164 67.6001C85.2631 67.4801 85.1764 67.3854 85.0564 67.3161C84.9391 67.2441 84.8057 67.2081 84.6564 67.2081C84.4351 67.2081 84.2484 67.2854 84.0964 67.4401C83.9444 67.5921 83.8684 67.7788 83.8684 68.0001C83.8684 68.2214 83.9444 68.4094 84.0964 68.5641C84.2484 68.7161 84.4351 68.7921 84.6564 68.7921C84.8057 68.7921 84.9391 68.7574 85.0564 68.6881C85.1737 68.6161 85.2657 68.5201 85.3324 68.4001L85.5524 68.5281C85.4697 68.6881 85.3484 68.8148 85.1884 68.9081C85.0284 69.0014 84.8511 69.0481 84.6564 69.0481ZM87.3714 67.0001H87.6514L86.7954 69.1841C86.7181 69.3814 86.6074 69.5361 86.4634 69.6481C86.3221 69.7628 86.1634 69.8134 85.9874 69.8001V69.5521C86.2274 69.5788 86.4101 69.4401 86.5354 69.1361L86.5874 69.0121L85.6914 67.0001H85.9714L86.7234 68.6761L87.3714 67.0001Z" fill="black"/>
<path d="M141 0H91V48H141V0Z" fill="black"/>
<path d="M109.283 23.4018C109.684 23.4018 110.004 23.5325 110.242 23.7938C110.485 24.0551 110.606 24.4051 110.606 24.8438V26.9998H109.703V24.9068C109.703 24.6968 109.652 24.5335 109.549 24.4168C109.446 24.3001 109.302 24.2418 109.115 24.2418C108.91 24.2418 108.749 24.3095 108.632 24.4448C108.52 24.5801 108.464 24.7761 108.464 25.0328V26.9998H107.561V24.9068C107.561 24.6968 107.51 24.5335 107.407 24.4168C107.304 24.3001 107.16 24.2418 106.973 24.2418C106.772 24.2418 106.611 24.3095 106.49 24.4448C106.373 24.5801 106.315 24.7761 106.315 25.0328V26.9998H105.412V23.4998H106.315V23.8708C106.525 23.5581 106.849 23.4018 107.288 23.4018C107.717 23.4018 108.035 23.5698 108.24 23.9058C108.473 23.5698 108.821 23.4018 109.283 23.4018ZM114.355 26.5658C113.996 26.9205 113.557 27.0978 113.039 27.0978C112.521 27.0978 112.082 26.9205 111.723 26.5658C111.368 26.2065 111.191 25.7678 111.191 25.2498C111.191 24.7318 111.368 24.2955 111.723 23.9408C112.082 23.5815 112.521 23.4018 113.039 23.4018C113.557 23.4018 113.996 23.5815 114.355 23.9408C114.714 24.2955 114.894 24.7318 114.894 25.2498C114.894 25.7678 114.714 26.2065 114.355 26.5658ZM112.36 25.9428C112.542 26.1248 112.768 26.2158 113.039 26.2158C113.31 26.2158 113.536 26.1248 113.718 25.9428C113.9 25.7608 113.991 25.5298 113.991 25.2498C113.991 24.9698 113.9 24.7388 113.718 24.5568C113.536 24.3748 113.31 24.2838 113.039 24.2838C112.768 24.2838 112.542 24.3748 112.36 24.5568C112.183 24.7388 112.094 24.9698 112.094 25.2498C112.094 25.5298 112.183 25.7608 112.36 25.9428ZM117.456 24.3678H116.665V25.8238C116.665 25.9451 116.695 26.0338 116.756 26.0898C116.817 26.1458 116.905 26.1785 117.022 26.1878C117.139 26.1925 117.283 26.1901 117.456 26.1808V26.9998C116.835 27.0698 116.397 27.0115 116.14 26.8248C115.888 26.6381 115.762 26.3045 115.762 25.8238V24.3678H115.153V23.4998H115.762V22.7928L116.665 22.5198V23.4998H117.456V24.3678ZM118.541 23.0798C118.391 23.0798 118.261 23.0261 118.149 22.9188C118.041 22.8068 117.988 22.6761 117.988 22.5268C117.988 22.3775 118.041 22.2468 118.149 22.1348C118.261 22.0228 118.391 21.9668 118.541 21.9668C118.695 21.9668 118.825 22.0228 118.933 22.1348C119.045 22.2468 119.101 22.3775 119.101 22.5268C119.101 22.6761 119.045 22.8068 118.933 22.9188C118.825 23.0261 118.695 23.0798 118.541 23.0798ZM118.093 26.9998V23.4998H118.996V26.9998H118.093ZM122.125 23.4998H123.119L121.789 26.9998H120.76L119.43 23.4998H120.424L121.271 25.9498L122.125 23.4998ZM124.181 25.6208C124.302 26.0595 124.631 26.2788 125.168 26.2788C125.513 26.2788 125.775 26.1621 125.952 25.9288L126.68 26.3488C126.335 26.8481 125.826 27.0978 125.154 27.0978C124.575 27.0978 124.111 26.9228 123.761 26.5728C123.411 26.2228 123.236 25.7818 123.236 25.2498C123.236 24.7225 123.409 24.2838 123.754 23.9338C124.099 23.5791 124.543 23.4018 125.084 23.4018C125.597 23.4018 126.02 23.5791 126.351 23.9338C126.687 24.2885 126.855 24.7271 126.855 25.2498C126.855 25.3665 126.843 25.4901 126.82 25.6208H124.181ZM124.167 24.9208H125.952C125.901 24.6828 125.793 24.5055 125.63 24.3888C125.471 24.2721 125.289 24.2138 125.084 24.2138C124.841 24.2138 124.641 24.2768 124.482 24.4028C124.323 24.5241 124.218 24.6968 124.167 24.9208Z" fill="white"/>
<path d="M137 44.3299H137.128V44.6179H137.734C137.789 44.6179 137.828 44.6072 137.852 44.5859C137.875 44.5646 137.887 44.5326 137.888 44.4899C137.888 44.4472 137.887 44.3939 137.884 44.3299H138C138.021 44.4726 138.011 44.5786 137.97 44.6479C137.927 44.7159 137.849 44.7499 137.734 44.7499H137.128V44.9599H137V44.7499H136.76L136.72 44.6179H137V44.3299ZM137.83 43.1519L137 42.9059V42.7699L138 43.0779V43.2219L137.194 43.4799L138 43.7379V43.8819L137 44.1899V44.0539L137.83 43.8079L137 43.5459V43.4139L137.83 43.1519ZM136.976 42.1479C136.976 41.9986 137.029 41.8792 137.134 41.7899C137.238 41.6979 137.361 41.6519 137.504 41.6519C137.511 41.6519 137.531 41.6532 137.566 41.6559V42.5339C137.666 42.5206 137.746 42.4779 137.806 42.4059C137.866 42.3339 137.896 42.2439 137.896 42.1359C137.896 41.9839 137.839 41.8766 137.726 41.8139L137.794 41.6979C137.866 41.7419 137.923 41.8026 137.964 41.8799C138.004 41.9559 138.024 42.0419 138.024 42.1379C138.024 42.2952 137.975 42.4232 137.876 42.5219C137.777 42.6206 137.652 42.6699 137.5 42.6699C137.349 42.6699 137.225 42.6212 137.126 42.5239C137.026 42.4266 136.976 42.3012 136.976 42.1479ZM137.104 42.1479C137.104 42.2519 137.135 42.3392 137.196 42.4099C137.257 42.4792 137.338 42.5206 137.438 42.5339V41.7879C137.331 41.8026 137.249 41.8432 137.192 41.9099C137.133 41.9792 137.104 42.0586 137.104 42.1479ZM136.976 40.9739C136.976 40.8539 137.013 40.7586 137.088 40.6879C137.161 40.6173 137.261 40.5819 137.386 40.5819H138V40.7139H137.386C137.297 40.7139 137.227 40.7379 137.178 40.7859C137.129 40.8326 137.104 40.8993 137.104 40.9859C137.104 41.0859 137.135 41.1653 137.198 41.2239C137.261 41.2813 137.353 41.3099 137.476 41.3099H138V41.4419H137V41.3099H137.156C137.036 41.2353 136.976 41.1233 136.976 40.9739ZM137 39.7967H137.128V40.0847H137.734C137.789 40.0847 137.828 40.074 137.852 40.0527C137.875 40.0314 137.887 39.9994 137.888 39.9567C137.888 39.914 137.887 39.8607 137.884 39.7967H138C138.021 39.9394 138.011 40.0454 137.97 40.1147C137.927 40.1827 137.849 40.2167 137.734 40.2167H137.128V40.4267H137V40.2167H136.76L136.72 40.0847H137V39.7967ZM137.838 39.1612L137 38.8372V38.6972L138.092 39.1252C138.193 39.1652 138.271 39.2212 138.326 39.2932C138.382 39.3638 138.407 39.4425 138.4 39.5292H138.276C138.291 39.4092 138.221 39.3178 138.068 39.2552L138.006 39.2292L137 39.6772V39.5372L137.838 39.1612ZM138 37.2076V38.0976H137.874L137.366 37.5936C137.222 37.4496 137.099 37.3776 136.996 37.3776C136.909 37.3776 136.841 37.405 136.79 37.4596C136.738 37.513 136.712 37.5796 136.712 37.6596C136.712 37.8023 136.778 37.907 136.91 37.9736L136.84 38.0916C136.755 38.049 136.689 37.9896 136.644 37.9136C136.599 37.8376 136.576 37.753 136.576 37.6596C136.576 37.5476 136.614 37.4496 136.69 37.3656C136.763 37.2803 136.865 37.2376 136.996 37.2376C137.073 37.2376 137.149 37.259 137.224 37.3016C137.297 37.3443 137.378 37.4096 137.466 37.4976L137.864 37.8976V37.2076H138ZM136.728 37.0969L136.6 36.7269V36.6069H138V36.7469H136.754L136.848 37.0609L136.728 37.0969Z" fill="white"/>
<path d="M88 0H86V48H88V0Z" fill="black"/>
<path d="M85 0H82V48H85V0Z" fill="black"/>
<path d="M81 0H79V48H81V0Z" fill="black"/>
<path d="M78 0H77V48H78V0Z" fill="black"/>
<path d="M76 0H75V48H76V0Z" fill="black"/>
<path d="M74 0H73V48H74V0Z" fill="black"/>
<path d="M72 0H66V48H72V0Z" fill="black"/>
<path d="M64 0H62V48H64V0Z" fill="black"/>
<path d="M61 0H56V48H61V0Z" fill="black"/>
<path d="M55 0H53V48H55V0Z" fill="black"/>
<path d="M52 0H48V48H52V0Z" fill="black"/>
<path d="M47 0H46V48H47V0Z" fill="black"/>
<path d="M44 0H43V48H44V0Z" fill="black"/>
<path d="M42 0H40V48H42V0Z" fill="black"/>
<path d="M38 0H37V48H38V0Z" fill="black"/>
<path d="M36 0H35V48H36V0Z" fill="black"/>
<path d="M34 0H33V48H34V0Z" fill="black"/>
<path d="M32 0H29V48H32V0Z" fill="black"/>
<path d="M27 0H20V48H27V0Z" fill="black"/>
<path d="M16 0H14V48H16V0Z" fill="black"/>
<path d="M11 0H9V48H11V0Z" fill="black"/>
<path d="M6 0H0V48H6V0Z" fill="black"/>
</svg>
